<?xml version="1.0" encoding="UTF-8"?>
<!DOCTYPE svg PUBLIC "-//W3C//DTD SVG 1.1//EN" "http://www.w3.org/Graphics/SVG/1.1/DTD/svg11.dtd">
<svg xmlns="http://www.w3.org/2000/svg" version="1.1" width="199px" height="105px" style="shape-rendering:geometricPrecision; text-rendering:geometricPrecision; image-rendering:optimizeQuality; fill-rule:evenodd; clip-rule:evenodd" xmlns:xlink="http://www.w3.org/1999/xlink">
<g><path style="opacity:1" fill="#000000" d="M 108.5,-0.5 C 109.5,-0.5 110.5,-0.5 111.5,-0.5C 111.5,34.5 111.5,69.5 111.5,104.5C 109.5,104.5 107.5,104.5 105.5,104.5C 105.667,73.1649 105.5,41.8316 105,10.5C 88.3583,32.6423 71.525,54.6423 54.5,76.5C 52.8513,75.3523 51.3513,74.019 50,72.5C 34.7173,51.5495 19.0506,30.8828 3,10.5C 2.50002,41.8316 2.33335,73.1649 2.5,104.5C 1.5,104.5 0.5,104.5 -0.5,104.5C -0.5,69.8333 -0.5,35.1667 -0.5,0.5C 18.1862,23.6966 36.3528,47.3633 54,71.5C 71.9989,47.3396 90.1655,23.3396 108.5,-0.5 Z"/></g>
<g><path style="opacity:1" fill="#000000" d="M 128.5,-0.5 C 132.167,-0.5 135.833,-0.5 139.5,-0.5C 139.334,4.51108 139.501,9.51108 140,14.5C 145.037,9.63128 149.87,4.63128 154.5,-0.5C 160.167,-0.5 165.833,-0.5 171.5,-0.5C 157.922,14.5811 143.755,29.2478 129,43.5C 128.5,28.8371 128.333,14.1705 128.5,-0.5 Z"/></g>
<g><path style="opacity:1" fill="#000000" d="M 190.5,-0.5 C 192.167,-0.5 193.833,-0.5 195.5,-0.5C 195.631,0.238911 195.464,0.905578 195,1.5C 178.288,17.7105 162.122,34.3772 146.5,51.5C 163.575,69.2418 180.908,86.5751 198.5,103.5C 198.5,103.833 198.5,104.167 198.5,104.5C 196.833,104.5 195.167,104.5 193.5,104.5C 176.34,86.5063 158.673,69.0063 140.5,52C 157.371,34.6309 174.037,17.1309 190.5,-0.5 Z"/></g>
<g><path style="opacity:1" fill="#000000" d="M 49.5,104.5 C 44.5,104.5 39.5,104.5 34.5,104.5C 32.5146,100.544 30.0146,96.8777 27,93.5C 26.5014,97.1516 26.3347,100.818 26.5,104.5C 22.5,104.5 18.5,104.5 14.5,104.5C 14.1673,88.8192 14.5006,73.1525 15.5,57.5C 27.0876,73.0192 38.4209,88.6859 49.5,104.5 Z"/></g>
<g><path style="opacity:1" fill="#000000" d="M 93.5,104.5 C 89.5,104.5 85.5,104.5 81.5,104.5C 81.6653,100.818 81.4986,97.1516 81,93.5C 78.49,97.1955 75.99,100.862 73.5,104.5C 68.5,104.5 63.5,104.5 58.5,104.5C 69.4547,88.8798 80.788,73.5465 92.5,58.5C 93.4994,73.8189 93.8327,89.1522 93.5,104.5 Z"/></g>
<g><path style="opacity:1" fill="#000000" d="M 170.5,104.5 C 165.167,104.5 159.833,104.5 154.5,104.5C 149.87,99.3687 145.037,94.3687 140,89.5C 139.501,94.4889 139.334,99.4889 139.5,104.5C 135.833,104.5 132.167,104.5 128.5,104.5C 128.167,90.4841 128.501,76.4841 129.5,62.5C 143.161,76.494 156.827,90.494 170.5,104.5 Z"/></g>
</svg>
